<svg width="540" height="112" viewBox="0 0 540 112" fill="none" xmlns="http://www.w3.org/2000/svg">
<path d="M3.03351 0.170426C2.64681 0.310439 1.93446 0.770482 1.46634 1.21052C-0.935283 3.49074 -0.406111 7.67113 3.19633 14.7318C13.3727 34.6136 49.1326 71.6971 75.8761 90.0788C83.8544 95.5593 91.2221 99.1397 95.252 99.4597C97.8978 99.6797 99.7906 98.8597 100.768 97.0595C101.154 96.3594 101.215 95.9394 101.215 94.1392C101.195 92.299 101.114 91.799 100.523 90.1388C98.8951 85.4584 95.6183 79.8379 90.1841 72.3972L87.64 68.8969L88.6577 66.6566C91.3646 60.6961 92.545 54.7355 92.3008 48.1549C92.0769 41.7943 90.5301 36.0938 87.579 30.5933C81.0457 18.4521 69.119 10.4914 55.1163 8.91124C52.1448 8.59121 46.3035 8.79123 43.3931 9.31128C39.6278 9.99134 36.3714 11.0114 32.891 12.5916L31.1203 13.3717L28.9222 11.7915C21.4121 6.351 14.4311 2.33063 9.74993 0.790484C7.99959 0.21043 7.22618 0.0504146 5.65902 0.0104108C4.53961 -0.0295929 3.42021 0.0504146 3.03351 0.170426ZM57.0498 19.8923C66.3917 21.9725 74.024 27.733 78.237 35.8538C79.3971 38.134 80.4962 41.1743 81.0864 43.9345C81.6359 46.3747 81.6359 53.0954 81.0864 55.5356C80.2113 59.536 78.7255 63.1563 76.6902 66.2366C74.6753 69.2969 73.1895 70.337 70.8693 70.337C69.0172 70.337 68.1013 69.9169 65.1909 67.7367C52.8164 58.4959 40.9304 46.7548 31.7513 34.7337C29.9602 32.3734 29.6753 31.7134 29.6753 29.9932C29.6753 27.1529 31.2628 25.3728 35.9847 22.8725C38.9358 21.3124 42.0701 20.2723 45.754 19.6122C48.0946 19.2122 54.6889 19.3722 57.0498 19.8923Z" fill="#F0760C"/>
<path d="M14.8478 40.1596C14.3939 40.5561 13.9743 41.7132 13.3885 44.1495C12.6013 47.3803 12.3362 51.9785 12.726 55.4716C13.4523 62.0944 16.4968 69.017 20.9588 74.2485C22.3861 75.9117 25.6395 78.9102 27.3396 80.1242C34.7 85.3976 43.9698 87.8921 53.0488 87.0669C56.2202 86.7634 60.5525 85.8577 61.4598 85.2893C61.9134 84.9966 62.1872 84.1847 62.0074 83.631C61.8995 83.3196 56.3489 78.7424 55.1731 78.0135C54.7572 77.7358 54.5398 77.7353 52.9449 77.9217C50.5709 78.1924 46.2413 78.0091 43.9957 77.5366C41.4427 77.0122 40.1757 76.5767 37.5697 75.3433C32.1047 72.7714 27.8931 68.8369 25.206 63.8517C23.1325 59.9395 22.3425 57.0507 22.1901 52.7974C22.122 50.982 22.1804 49.4436 22.3278 48.4415C22.5305 47.0414 22.5129 46.8342 22.2423 46.4185C21.8089 45.795 17.8527 41.2216 17.0756 40.4414C16.2803 39.6618 15.5559 39.5735 14.8478 40.1596Z" fill="#F0760C"/>
<g clip-path="url(#clip0_0_1)">
<path d="M149.236 9.45246C143.368 10.8002 138.312 14.5289 136.056 19.201C134.837 21.6718 133.708 26.6584 133.708 29.5335C133.708 34.6998 135.74 40.1805 139.17 43.9991C140.976 46.0656 146.302 49.7943 151.809 52.8491C154.878 54.5563 158.896 58.285 161.017 61.3847C162.236 63.1817 162.371 63.6309 162.326 66.9553C162.326 71.5376 161.243 74.817 159.212 76.5691C157.045 78.5008 154.923 79.0399 150.68 78.8153C144.406 78.5008 142.42 76.7038 138.99 68.5276C136.958 63.586 135.514 61.9238 133.753 62.5078C133.257 62.6426 132.58 63.1817 132.309 63.7208C131.722 64.754 131.045 73.649 131 80.0731V84.5655L137.319 86.4524C143.097 88.2044 144.045 88.3392 148.694 88.3392C158.399 88.3392 162.371 87.0813 167.382 82.4092C171.986 78.0965 174.333 72.481 174.333 65.4728C174.333 54.1519 169.187 46.8742 155.736 39.2821C150.049 36.0475 147.114 33.6665 145.941 31.3305C143.549 26.5685 144.993 20.5487 149.101 18.4822C150.68 17.6286 154.472 17.6286 156.458 18.4373C158.58 19.3358 160.476 21.8515 162.371 26.3439C164.312 31.016 165.621 32.6333 167.517 32.6333C170.18 32.6333 170.271 32.229 170.271 21.4472V11.6987L165.125 10.4857C158.76 8.9583 152.983 8.5989 149.236 9.45246Z" fill="#FBF5D7"/>
<path d="M279.687 9.45243C277.385 10.4857 276.166 12.642 275.985 16.0563C275.85 18.3923 275.985 19.3807 276.753 20.8632C278.333 23.918 281.492 24.9063 284.787 23.334C289.527 21.0878 290.159 13.271 285.826 10.1263C284.291 9.00319 281.402 8.68872 279.687 9.45243Z" fill="#FBF5D7"/>
<path d="M437.175 9.99153C434.602 11.6537 433.429 13.8999 433.429 17.0895C433.429 20.3241 434.377 22.166 436.453 23.0644C439.342 24.2325 443.043 22.8398 444.488 20.0545C446.023 17.0895 444.939 11.8783 442.457 10.1263C440.471 8.68873 439.252 8.68873 437.175 9.99153Z" fill="#F0760C"/>
<path d="M303.926 18.7068C303.114 18.8865 302.121 19.3807 301.714 19.785C300.857 20.5936 300.36 23.9629 300.315 28.8597C300.27 32.7231 300.044 33.1724 297.968 33.6665C297.291 33.8462 296.298 34.3404 295.711 34.8346C294.808 35.5533 294.628 36.0924 294.628 38.2488C294.628 41.1689 295.395 42.0673 297.832 42.0673H299.277L299.548 57.2068C300.044 81.0614 300.586 84.0714 304.874 86.8567C306.589 87.9798 307.131 88.1145 310.832 88.1145C314.353 88.1145 315.256 87.9348 317.197 86.9465C320.086 85.464 320.898 83.9815 320.131 81.4658C319.86 80.5224 319.093 79.1746 318.506 78.5906C317.513 77.6023 317.107 77.5124 315.256 77.782C314.082 77.9168 312.683 78.1863 312.141 78.3211L311.103 78.5457V60.3514V42.1572L314.489 41.9775C316.339 41.8876 318.1 41.5732 318.416 41.2587C318.686 40.9892 319.048 39.5516 319.138 38.1589C319.409 34.3404 318.596 33.4868 314.353 33.1724L311.103 32.9477V26.6134C311.103 18.8865 310.832 18.2126 307.582 18.3025C306.409 18.3474 304.784 18.5271 303.926 18.7068Z" fill="#FBF5D7"/>
<path d="M334.575 18.572C329.745 19.3807 329.159 20.369 329.159 27.4221C329.159 32.8579 328.752 33.981 326.902 33.981C326.45 33.981 325.457 34.5201 324.69 35.149C323.516 36.1373 323.291 36.6315 323.291 38.2937C323.291 40.7645 324.419 42.0673 326.676 42.0673H328.256V56.7575C328.256 78.1414 328.933 82.3642 332.77 85.8234C334.982 87.8001 337.238 88.5189 340.263 88.2044C343.061 87.9348 347.124 85.9133 347.801 84.4308C348.704 82.4092 346.853 78.0066 345.047 78.0066C344.641 78.0066 343.422 78.3211 342.384 78.7254C341.301 79.1297 340.308 79.3543 340.172 79.2196C339.36 78.4109 339.089 73.7837 339.089 58.7791V42.0673H341.933C345.995 42.0673 346.763 41.4384 346.763 37.8894C346.763 36.362 346.582 34.8346 346.402 34.5201C345.905 33.7564 343.377 33.0825 341.075 33.0825H339.225L338.999 26.6134C338.863 23.0644 338.502 19.7401 338.231 19.201C337.69 18.2576 337.058 18.1677 334.575 18.572Z" fill="#F0760C"/>
<path d="M192.885 31.5551C187.649 32.9478 182.774 36.946 180.201 41.8427L179.118 43.9991L181.51 46.1554C182.819 47.3684 184.264 48.3567 184.76 48.3567C185.212 48.3567 186.069 47.8176 186.656 47.1438C188.732 44.5382 191.215 42.5166 193.111 41.7978C195.729 40.8095 199.43 41.1239 201.371 42.4717C203.086 43.7295 204.576 46.425 204.711 48.6712L204.802 50.3334L201.191 50.9174C191.711 52.355 182.368 58.1502 179.705 64.2149C178.305 67.5393 178.26 75.2663 179.705 78.995C181.42 83.3975 186.837 87.2161 192.975 88.3392C196.135 88.9232 199.882 88.1145 203.493 86.048L205.84 84.7003L206.968 85.8234C208.277 87.1262 211.934 87.7102 215.5 87.261C221.277 86.4973 222.361 83.7569 218.569 79.6239C217.666 78.5906 216.718 77.3328 216.583 76.7937C216.402 76.2097 216.086 69.3363 215.861 61.5195C215.454 46.3351 215.184 44.2686 212.972 39.8661C210.895 35.8229 205.84 32.184 200.875 31.2856C197.805 30.7016 195.819 30.7465 192.885 31.5551ZM205.208 60.3065C206.066 62.5527 204.982 69.6058 203.222 73.3794C201.642 76.7937 198.798 78.9051 195.774 78.9051C192.659 78.9051 191.08 77.1531 190.086 72.6607C189.274 68.8421 190.854 65.4279 194.781 62.6426C198.392 60.0819 204.576 58.6893 205.208 60.3065Z" fill="#FBF5D7"/>
<path d="M261.225 31.6C257.208 32.1391 255.176 32.1391 250.617 31.7797C239.829 30.8363 238.249 31.1058 233.555 34.8345C230.44 37.3054 228.274 40.3602 227.326 43.6397C226.243 47.4133 226.243 54.8707 227.326 58.4646C228.454 62.1933 228.409 62.6875 226.378 65.6974C223.715 69.6058 223.309 70.9985 223.309 75.5358C223.309 79.0399 223.489 79.8934 224.527 81.915C225.204 83.1729 226.559 84.88 227.552 85.6886L229.312 87.1711L228.364 89.4623C227.642 91.1244 227.416 92.6968 227.416 95.7516C227.371 99.2557 227.552 100.154 228.635 102.49C230.124 105.68 231.298 106.983 233.645 108.196C237.708 110.262 247.006 111.026 252.197 109.678C264.836 106.399 271.742 94.2691 267.003 83.712C266.145 81.8701 265.242 80.6122 263.978 79.7586C260.774 77.4226 257.794 76.8835 241.229 75.7604C234.322 75.3112 232.427 74.7721 232.201 73.1997C232.065 72.1665 234.503 69.0218 235.496 69.0218C235.812 69.0218 236.94 69.4261 238.024 69.8753C244.208 72.5708 252.468 70.9086 258.065 65.8322C262.85 61.4296 264.836 54.8707 263.753 46.6496C263.437 44.3585 263.256 42.3369 263.392 42.247C263.482 42.1123 264.475 41.8876 265.513 41.7079C268.357 41.2138 269.079 40.0457 269.395 34.9693L269.711 30.8363L267.951 30.8812C267.003 30.9262 263.978 31.2406 261.225 31.6ZM247.954 39.6414C248.586 39.9559 249.76 40.9442 250.527 41.7978C252.197 43.6846 252.604 46.2453 252.333 52.939C252.107 58.3299 251.52 59.8573 248.676 61.8789C247.051 63.0918 246.51 63.2266 244.84 63.002C239.649 62.3281 238.249 59.9022 238.204 51.5014C238.204 43.3252 239.333 40.495 243.17 39.1473C245.02 38.5183 245.923 38.6082 247.954 39.6414ZM257.659 90.6752C260.277 93.2808 255.357 100.289 249.805 101.816C245.833 102.895 241.003 101.906 239.558 99.7049C237.888 97.2341 237.843 94.7184 239.333 90.8549L239.784 89.6419L248.36 89.7767C255.673 89.9115 257.027 90.0013 257.659 90.6752Z" fill="#FBF5D7"/>
<path d="M367.436 31.2855C364.638 31.7797 360.936 33.6665 358.77 35.6881C356.287 38.0242 353.082 42.4716 353.082 43.5049C353.082 44.9874 355.52 47.009 357.235 47.009C358.499 47.009 359.176 46.5597 361.207 44.4932C365.54 40.1356 368.745 39.282 373.169 41.3485C375.11 42.2021 375.651 42.7861 376.87 45.0323C377.638 46.4699 378.36 48.2219 378.54 48.8958C378.856 50.2435 379.443 50.0189 371.589 51.9057C365.54 53.3882 359.808 56.3532 356.468 59.7674C352.676 63.6309 352.044 65.5177 352.225 72.5259C352.405 77.198 352.54 78.0515 353.669 80.3427C356.016 85.1046 361.297 87.6653 368.881 87.6653C373.079 87.6653 373.214 87.6204 376.013 85.9132L378.856 84.1163L380.301 85.0148C381.519 85.7335 382.603 85.8683 386.756 85.8683C392.353 85.8683 393.256 85.5089 393.256 83.3076C393.256 81.9599 391.766 80.0731 389.87 79.0399C388.697 78.366 388.381 74.4576 388.335 59.5877C388.29 47.0988 387.974 44.7178 385.717 40.6298C383.415 36.4069 377.818 32.184 373.575 31.5102C370.19 30.9711 369.558 30.9262 367.436 31.2855ZM378.405 59.2283C379.172 60.6659 378.631 67.719 377.457 71.4028C375.877 76.3893 372.537 79.3543 368.429 79.3543C363.554 79.3543 360.891 72.0317 363.735 66.4162C365.45 62.957 368.79 60.621 374.072 59.0936C377.592 58.0603 377.773 58.0603 378.405 59.2283Z" fill="#F0760C"/>
<path d="M417.179 32.2289C415.644 32.8579 413.929 34.0259 412.575 35.4186L410.408 37.6198V35.8678C410.408 34.7896 410.092 33.6665 409.596 33.0825C408.738 32.0043 408.422 32.0043 399.214 33.352C396.144 33.8013 395.783 37.1706 398.627 38.8328C399.801 39.5067 400.026 39.911 400.252 42.2919C400.433 43.7744 400.478 52.4448 400.387 61.5195L400.252 78.0515L398.537 79.4891C396.46 81.2861 395.964 83.1729 397.228 84.7452C398.13 85.8683 398.176 85.8683 406.255 85.8683C413.613 85.8683 414.471 85.7785 415.328 85.0148C415.87 84.5206 416.276 83.8018 416.276 83.3975C416.276 82.2744 414.696 80.4774 412.349 78.8602L410.318 77.4675L410.544 65.4728C410.769 52.8491 411.085 50.5131 413.071 47.2785C414.29 45.3468 417.405 42.5166 418.307 42.5166C418.714 42.5166 420.429 43.2354 422.189 44.1338C423.95 44.9874 425.485 45.6163 425.62 45.4816C426.071 45.0772 428.012 36.4967 428.012 35.0592C428.012 34.2505 427.606 33.1724 427.155 32.5883C425.936 31.0609 420.7 30.8812 417.179 32.2289Z" fill="#F0760C"/>
<path d="M517.432 31.7797C511.113 32.813 506.824 36.2272 505.244 41.3935C504.071 45.1671 503.935 50.8725 505.019 52.9839C507.547 57.8806 511.88 61.6543 518.515 64.754C524.428 67.4944 527.317 70.2797 527.317 73.2896C527.317 75.9401 524.203 79.8934 521.585 80.5224C519.869 80.9716 515.31 80.4325 514.227 79.6688C512.737 78.6356 511.383 76.3894 509.488 71.8071C507.908 67.9886 506.238 65.4279 505.29 65.4279C503.304 65.4279 502.491 69.0218 502.491 77.6922V83.4424L505.876 85.0148C511.113 87.4407 514.137 88.0247 519.734 87.8001C524.203 87.6204 524.835 87.4856 527.949 85.9582C536.616 81.6904 539.956 72.1665 535.848 63.3614C534.133 59.6776 530.387 56.4431 524.519 53.6128C516.394 49.6595 513.008 45.5714 514.814 41.8427C515.762 39.8211 517.703 38.8777 520.908 38.8777C525.06 38.8328 525.783 39.327 527.588 43.2803C530.522 49.8392 531.38 51.0522 533.05 51.0522C533.772 51.0522 534.269 50.6928 534.539 49.8841C535.171 48.3118 535.126 36.0924 534.494 34.7447C533.817 33.3071 532.599 32.7681 527.904 31.9594C523.661 31.2406 521.133 31.1957 517.432 31.7797Z" fill="#F0760C"/>
<path d="M490.078 32.4536C488.588 32.7681 486.512 33.0376 485.474 33.0825C480.644 33.1275 479.38 36.2272 482.991 39.1922C484.571 40.495 484.842 43.3252 484.842 60.3515L484.887 73.9185L482.585 76.0749C479.561 78.95 478.342 79.534 475.408 79.534C472.248 79.579 469.991 78.5008 468.321 76.1198L467.057 74.2779L466.922 53.1636L466.786 32.0493L462.408 32.3637C456.72 32.813 453.832 33.4419 452.793 34.4752C451.529 35.7331 451.755 36.6315 453.832 38.5633L455.682 40.2704L456.269 57.2068C456.856 75.6706 457.127 77.2878 459.654 80.9716C463.085 85.9582 466.831 87.6653 474.054 87.6204C478.929 87.5755 481.953 86.8567 483.623 85.3293C484.3 84.7003 484.616 84.7003 485.88 85.2394C486.873 85.6437 489.175 85.8683 492.606 85.8683C498.338 85.8683 499.331 85.509 499.331 83.4424C499.331 81.8252 498.248 80.3876 496.126 79.3544L494.366 78.4559V55.0953C494.366 33.1275 494.321 31.7348 493.599 31.7797C493.147 31.8247 491.567 32.0942 490.078 32.4536Z" fill="#F0760C"/>
<path d="M276.256 32.6333C272.239 33.397 271.607 36.4967 274.857 39.1473C275.805 39.9559 276.03 40.6747 276.437 44.0889C276.933 48.5813 276.708 76.8835 276.166 78.0965C275.985 78.5457 275.444 78.9949 274.947 79.1297C273.728 79.534 272.735 81.6455 272.735 83.8018C272.735 86.8117 273.503 87.0813 282.666 86.9016C290.204 86.7668 290.43 86.7219 291.287 85.6886C292.551 84.1163 292.326 82.5439 290.475 79.8485L288.76 77.3777L288.624 54.7808L288.489 32.184L283.208 32.2289C280.319 32.2739 277.159 32.4536 276.256 32.6333Z" fill="#FBF5D7"/>
<path d="M436.905 32.6782C430.089 33.397 428.328 36.0924 432.707 39.1023C433.384 39.5516 433.7 40.495 433.925 42.7861C434.377 46.7844 434.377 71.4926 433.925 75.3112C433.655 77.8718 433.384 78.4558 431.939 79.8934C430.766 81.0614 430.269 81.915 430.269 82.8584C430.269 84.7901 431.217 85.5089 434.151 85.9132C437.627 86.3176 446.564 85.9132 447.783 85.2394C449.363 84.3858 449.092 82.4092 447.106 80.2079L445.391 78.3211L445.255 55.275L445.12 32.184L442.773 32.2289C441.464 32.2739 438.846 32.4536 436.905 32.6782Z" fill="#F0760C"/>
</g>
<defs>
<clipPath id="clip0_0_1">
<rect width="409" height="103" fill="white" transform="translate(131 9)"/>
</clipPath>
</defs>
</svg>
